<?xml version="1.0" encoding="utf-8"?>
<!-- Generator: Adobe Illustrator 23.1.0, SVG Export Plug-In . SVG Version: 6.00 Build 0)  -->
<svg version="1.1" id="Layer_1" xmlns="http://www.w3.org/2000/svg" xmlns:xlink="http://www.w3.org/1999/xlink" x="0px" y="0px"
	 viewBox="0 0 274.6 276.6" style="enable-background:new 0 0 274.6 276.6;" xml:space="preserve">
<style type="text/css">
	.st0{fill:#AECCEB;}
	.st1{fill:none;}
	.st2{fill:#FFFFFF;}
</style>
<g>
	<g>
		<path class="st0" d="M210.2,156.4l13.5-23.3h-54.4l13.3,23.1c-27.9,5.5-47,26.9-47,44v41.3c0,15.1,12.3,27.4,27.4,27.4h67.2
			c15,0,27.1-12.2,27.1-27.1v-41.5C257.4,184.6,236.1,162.4,210.2,156.4z M212.8,139.3l-9.2,15.9c-0.1,0-0.1,0-0.2,0
			c0,0-0.1,0-0.1,0c-0.7-0.1-1.5-0.2-2.2-0.2c-0.1,0-0.1,0-0.2,0c-1.5-0.1-3-0.2-4.5-0.2c-0.1,0-0.1,0-0.2,0c-1,0-2.1,0-3.1,0.1
			c-0.1,0-0.3,0-0.4,0c-1.1,0.1-2.2,0.1-3.4,0.3c0,0,0,0,0,0l-9.1-15.8H212.8z M251.1,241.7c0,11.5-9.4,20.9-20.9,20.9H163
			c-11.6,0-21.1-9.5-21.1-21.1v-41.3c0-13.6,17.5-34.9,46.1-38.6v0c5.6-0.7,11.1-0.8,16.8,0.1l0,0c26.4,4.2,46.2,26.2,46.2,38.4
			V241.7z"/>
		<path class="st0" d="M231,184.8h-10l-4.8,23.3h-9.3l-5.1-23.3h-10.7l-5.1,23.3h-9.3l-4.7-23.3h-10l5.7,23.3h-8.1v7.8h9.4l6.9,28.8
			h10.8l6.4-28.9h6.7l6.4,28.9h10.8l6.9-28.8h9.3v-7.8h-8L231,184.8z M182.3,227.7l-0.9,5.9l-0.9-5.9l-2.3-11.9h6.6L182.3,227.7z
			 M194.4,208.3l1.5-7.7l0.7-5.1l0.7,5.1l1.5,7.7H194.4z M212.5,227.7l-0.9,5.9l-0.8-5.9l-2.6-11.9h6.6L212.5,227.7z"/>
	</g>
	<g>
		<rect x="34.3" y="93.3" class="st1" width="29.7" height="160.5"/>
		<polygon class="st2" points="69.4,17.7 191.1,17.7 191.1,110.8 196.5,110.8 196.5,12.3 64,12.3 64,87.9 69.4,87.9 		"/>
		<rect x="69.4" y="253.8" class="st2" width="50.4" height="5.4"/>
		<polygon class="st2" points="34.3,253.8 34.3,93.3 64,93.3 64,87.9 28.9,87.9 28.9,259.2 64,259.2 64,253.8 		"/>
		<polygon class="st2" points="69.4,87.9 64,87.9 64,93.3 64,253.8 64,259.2 69.4,259.2 69.4,253.8 		"/>
		<rect x="84.5" y="47.8" class="st2" width="17.8" height="17.8"/>
		<rect x="121.4" y="47.8" class="st2" width="17.8" height="17.8"/>
		<rect x="160.1" y="47.8" class="st2" width="17.8" height="17.8"/>
		<rect x="84.5" y="77.2" class="st2" width="17.8" height="17.8"/>
		<rect x="121.4" y="77.2" class="st2" width="17.8" height="17.8"/>
		<rect x="160.1" y="77.2" class="st2" width="17.8" height="17.8"/>
		<rect x="84.5" y="106.7" class="st2" width="17.8" height="17.8"/>
		<rect x="84.5" y="136.1" class="st2" width="17.8" height="17.8"/>
		<rect x="84.5" y="165.5" class="st2" width="17.8" height="17.8"/>
		<polygon class="st2" points="121.4,106.7 121.4,124.5 130.3,124.5 139.2,124.5 139.2,110.8 139.2,106.7 		"/>
		<polygon class="st2" points="160.1,106.7 160.1,110.8 160.1,124.5 177.9,124.5 177.9,110.8 177.9,106.7 		"/>
		<polygon class="st2" points="130.3,136.1 121.4,136.1 121.4,153.9 130.3,153.9 139.2,153.9 139.2,136.1 		"/>
	</g>
</g>
</svg>
