<?xml version="1.0" encoding="utf-8"?>
<!-- Generator: Adobe Illustrator 23.1.0, SVG Export Plug-In . SVG Version: 6.00 Build 0)  -->
<svg version="1.1" id="Layer_1" xmlns="http://www.w3.org/2000/svg" xmlns:xlink="http://www.w3.org/1999/xlink" x="0px" y="0px"
	 viewBox="0 0 274.6 276.6" style="enable-background:new 0 0 274.6 276.6;" xml:space="preserve">
<style type="text/css">
	.st0{fill:#AECCEB;}
	.st1{fill:none;}
	.st2{fill:#FFFFFF;}
</style>
<g>
	<g>
		<path class="st0" d="M191.7,128.9v16.2v4.8v11.4v4.8v11.4v4.8v11.4v4.8v11.4v0h-58.9v16.2v4.7v11.5v4.7v16.2h58.9v0h65.4v-16.2
			V242v-11.4v-4.8v-11.4v-4.8v-11.4v-4.8v-11.4v-4.8V166v-4.8v-11.4v-4.8v-16.2H191.7z M137.5,214.4h54.2v0v11.4v0h-54.2V214.4z
			 M137.5,230.6h54.2v0V242v0h-54.2V230.6z M137.5,258.2v-11.5h54.2v0v11.4H137.5z M252.3,258.2h-55.9v-11.4h55.9V258.2z M252.3,242
			h-55.9v-11.4h55.9V242z M252.3,225.9h-55.9v-11.4h55.9V225.9z M252.3,209.7h-55.9v-11.4h55.9V209.7z M252.3,193.6h-55.9v-11.4
			h55.9V193.6z M252.3,177.4h-55.9V166h55.9V177.4z M252.3,161.2h-55.9v-11.4h55.9V161.2z M196.4,145.1v-11.4h55.9v11.4H196.4z"/>
	</g>
	<g>
		<polygon class="st1" points="200.5,46.7 217,46.7 200.5,30.1 		"/>
		<rect x="53.1" y="60.6" class="st2" width="22.2" height="7"/>
		<rect x="53.1" y="80.7" class="st2" width="40.8" height="7"/>
		<path class="st2" d="M226.4,56v-7L198,20.6h-7H31.7V231l49.5-90.6h49.6l36.9-49.6v26.5h7V80.7h-35.9v7h22.4l-33.9,45.6H77
			l-38.3,70.2V27.6h156.8v24h23.9v73.7h7V56z M200.5,46.7V30.1L217,46.7H200.5z"/>
		<rect x="30.9" y="246.1" class="st2" width="95.9" height="7"/>
	</g>
</g>
</svg>
