<?xml version="1.0" encoding="utf-8"?>
<!-- Generator: Adobe Illustrator 23.1.0, SVG Export Plug-In . SVG Version: 6.00 Build 0)  -->
<svg version="1.1" id="Layer_1" xmlns="http://www.w3.org/2000/svg" xmlns:xlink="http://www.w3.org/1999/xlink" x="0px" y="0px"
	 viewBox="0 0 274.6 276.6" style="enable-background:new 0 0 274.6 276.6;" xml:space="preserve">
<style type="text/css">
	.st0{fill:#AECCEB;}
	.st1{fill:#FFFFFF;}
</style>
<g>
	<polygon class="st0" points="233.1,246.5 205,246.5 205,89.1 205,82 198,82 198,82.1 188,82.1 219.1,33.3 250.1,82.1 233.2,82.1 
		233.2,89.1 262.9,89.1 219.1,20.2 175.3,89.1 198,89.1 198,253.5 240.1,253.5 240.1,99.1 233.1,99.1 	"/>
	<polygon class="st1" points="34.9,248.3 34.9,25 27.9,25 27.9,49.9 11.1,49.9 11.1,56.9 27.9,56.9 27.9,78.2 11.1,78.2 11.1,85.2 
		27.9,85.2 27.9,106.6 11.1,106.6 11.1,113.6 27.9,113.6 27.9,134.9 11.1,134.9 11.1,141.9 27.9,141.9 27.9,163.3 11.1,163.3 
		11.1,170.3 27.9,170.3 27.9,191.6 11.1,191.6 11.1,198.6 27.9,198.6 27.9,220 11.1,220 11.1,227 27.9,227 27.9,255.3 258.2,255.3 
		258.2,248.3 	"/>
	<g>
		<path class="st1" d="M94.3,253.5H52.2v-64.3h42.1V253.5z M59.2,246.5h28.1v-50.3H59.2V246.5z"/>
	</g>
	<g>
		<path class="st1" d="M162,253.5h-42.1V133.2H162V253.5z M126.9,246.5H155V140.2h-28.1V246.5z"/>
	</g>
</g>
</svg>
