<?xml version="1.0" encoding="utf-8"?>
<!-- Generator: Adobe Illustrator 23.1.0, SVG Export Plug-In . SVG Version: 6.00 Build 0)  -->
<svg version="1.1" id="Layer_1" xmlns="http://www.w3.org/2000/svg" xmlns:xlink="http://www.w3.org/1999/xlink" x="0px" y="0px"
	 viewBox="0 0 274.6 276.6" style="enable-background:new 0 0 274.6 276.6;" xml:space="preserve">
<style type="text/css">
	.st0{fill:none;}
	.st1{fill:#CCCCCC;}
	.st2{fill:#FFFFFF;}
</style>
<g>
	<g>
		<path class="st0" d="M30.7,116.8H55c0.3-18.6,3.9-36.4,10.5-52.2c-5.3-2.2-10.2-4.7-14.8-7.5C38.5,74,31.2,94.6,30.7,116.8z"/>
		<path class="st0" d="M219.6,121.7c-0.3,18.3-3.8,35.9-10.2,51.5h19.9c9-15.2,14.3-32.8,14.7-51.5H219.6z"/>
		<path class="st0" d="M30.7,121.7c0.4,18.8,5.7,36.4,14.7,51.5h19.9c-6.4-15.6-9.9-33.2-10.2-51.5H30.7z"/>
		<path class="st0" d="M53.6,53.2c4.3,2.5,8.9,4.8,13.8,6.9c3.2-7,7-13.5,11.4-19.5c6.6-9,14.2-16.3,22.3-21.7
			C82.3,25.7,65.9,37.7,53.6,53.2z"/>
		<path class="st0" d="M189.2,121.7c0-0.3-0.1-0.6-0.2-1c-0.5-1.4-1.2-2.6-2-3.8c0-0.1,0-0.1,0-0.2h27.8
			c-0.3-18.8-4.2-36.3-10.7-51.5c-6,2.4-12.3,4.5-19,6.3c0.3-0.6,0.4-1.3,0.4-2.1c0-1.3-0.6-2.2-1.5-2.7c6.3-1.7,12.4-3.7,18-6
			c-11.3-23.7-29.3-40.8-50.2-46.3c5.7,5.6,10.9,14.7,15.2,26.8c1.1,3.2,2.2,6.7,3.2,10.2c-1.2-2-3.8-1.4-5,0.3
			c-0.9-3.1-1.8-6-2.8-8.8c-6.8-19.3-15.9-30.3-25-30.3c-9.1,0-18.2,11.1-25,30.3c-1.1,3.1-2.1,6.4-3.1,9.9
			c-1.8-1.2-5.2-0.2-5.5,2.7c0,0.1,0,0.1,0,0.2c-0.1,0-0.2-0.1-0.3-0.1c1.3-5,2.7-9.8,4.3-14.3c4.3-12.1,9.4-21.2,15.2-26.8
			C101.6,20,83.4,37.6,72.1,61.9c6.1,2.3,12.6,4.3,19.4,5.9c-0.4,1.6-1.1,3.1-1.8,4.6c-6.8-1.7-13.4-3.7-19.6-6
			c-6.2,14.9-9.8,32.1-10.1,50.3h26.3c-0.1,0.7-0.2,1.3-0.3,2.1c0,1.4,0.7,2.4,1.7,2.9H59.9c0.3,18.8,4.2,36.4,10.7,51.5H204
			c6.5-15.2,10.3-32.8,10.7-51.5H189.2z"/>
		<path class="st0" d="M222.9,55.6c-4.4,2.8-9.2,5.3-14.3,7.7c6.9,16.1,10.7,34.4,11,53.5H244C243.4,93.9,235.7,72.8,222.9,55.6z"/>
		<path class="st0" d="M173.4,18.9c8.2,5.4,15.7,12.7,22.3,21.7c4.1,5.6,7.7,11.7,10.8,18.2c4.7-2.1,9.2-4.5,13.3-7.1
			C207.7,37,191.7,25.5,173.4,18.9z"/>
		<path class="st1" d="M248.9,119.3c0-29.8-11.6-57.8-32.7-78.9c-21.1-21.1-49.1-32.7-78.9-32.7S79.5,19.3,58.4,40.3
			c-21.1,21.1-32.7,49.1-32.7,78.9c0,19.2,4.8,37.7,13.9,54h5.8c-9-15.2-14.3-32.8-14.7-51.5H55c0.3,18.3,3.8,35.9,10.2,51.5h5.4
			c-6.5-15.2-10.3-32.8-10.7-51.5h27.7c-1-0.5-1.7-1.4-1.7-2.9c0-0.7,0.1-1.4,0.3-2.1H59.9c0.3-18.3,4-35.4,10.1-50.3
			c6.2,2.4,12.7,4.4,19.6,6c0.7-1.5,1.4-3,1.8-4.6c-6.8-1.6-13.3-3.6-19.4-5.9c11.3-24.3,29.5-41.9,50.8-47.5
			c-5.7,5.6-10.9,14.7-15.2,26.8c-1.6,4.5-3,9.3-4.3,14.3c0.1,0,0.2,0,0.3,0.1c0-0.1,0-0.1,0-0.2c0.3-2.9,3.6-3.9,5.5-2.7
			c1-3.4,2-6.7,3.1-9.9c6.8-19.3,15.9-30.3,25-30.3c9.1,0,18.2,11.1,25,30.3c1,2.8,1.9,5.8,2.8,8.8c1.3-1.7,3.8-2.3,5-0.3
			c-1-3.6-2-7-3.2-10.2c-4.3-12.1-9.4-21.2-15.2-26.8c20.9,5.5,38.9,22.6,50.2,46.3c-5.7,2.3-11.7,4.3-18,6c0.9,0.5,1.5,1.4,1.5,2.7
			c0,0.8-0.1,1.5-0.4,2.1c6.7-1.8,13-3.9,19-6.3c6.5,15.2,10.3,32.8,10.7,51.5h-27.8c0,0.1,0,0.1,0,0.2c0.8,1.2,1.4,2.4,2,3.8
			c0.1,0.3,0.2,0.7,0.2,1h25.5c-0.3,18.8-4.2,36.4-10.7,51.5h5.4c6.4-15.6,9.9-33.2,10.2-51.5H244c-0.4,18.8-5.7,36.4-14.7,51.5h5.8
			C244.1,156.9,248.9,138.5,248.9,119.3z M55,116.8H30.7c0.5-22.2,7.8-42.8,20-59.7c4.6,2.7,9.6,5.2,14.8,7.5
			C58.9,80.4,55.3,98.2,55,116.8z M78.9,40.6c-4.4,6-8.2,12.5-11.4,19.5c-4.9-2.1-9.5-4.4-13.8-6.9c12.2-15.5,28.7-27.5,47.6-34.3
			C93,24.3,85.5,31.6,78.9,40.6z M195.8,40.6c-6.6-9-14.2-16.3-22.3-21.7c18.3,6.6,34.3,18.1,46.4,32.9c-4.1,2.6-8.5,4.9-13.3,7.1
			C203.5,52.3,199.9,46.2,195.8,40.6z M219.6,116.8c-0.3-19.1-4.1-37.4-11-53.5c5.1-2.3,9.9-4.9,14.3-7.7
			c12.8,17.2,20.5,38.3,21.1,61.2H219.6z"/>
	</g>
	<g>
		<polygon class="st0" points="119.6,213.9 132,200.8 109.4,200.8 116.1,217.7 116.3,217.5 116.2,217.4 		"/>
		<polygon class="st0" points="158.5,217.7 165.3,200.8 142.6,200.8 		"/>
		<polygon class="st2" points="121.5,217.4 121.5,217.4 122.3,216.5 		"/>
		<path class="st2" d="M118.3,263.7H26.9v-10c0-29.2,23.7-52.9,52.9-52.9h25.5l9.5,23.7l4.1-4.4l-2.7-2.6l-0.2,0.2l-6.7-16.9H132
			l-12.4,13.2l18-18l20.3,22l-2.2,2.2l4.1,4.4l9.5-23.7h22.2c31,0,56.2,25.2,56.2,56.2v6.7h-91.3H118.3z M156.5,268.8L253,269v-12
			c0-33.9-27.6-61.5-61.5-61.5H79.8c-32.1,0-58.2,26.1-58.2,58.2V269h96.7L156.5,268.8z M158.5,217.7l-15.9-16.9h22.6L158.5,217.7z"
			/>
		<polygon class="st2" points="116.2,217.4 116.3,217.5 119.6,213.9 		"/>
		<polygon class="st2" points="137.6,195.9 119.6,213.9 116.3,217.5 119,220.1 121.5,217.4 121.5,217.4 122.3,216.5 137.2,200.8 
			137.5,200.8 155.7,220.1 157.9,217.9 		"/>
		<path class="st2" d="M152.3,44.9h-29.9c-21.5,0-39,17.5-39,39v57.6c0,21.5,17.5,39,39,39h29.9c21.5,0,39-17.5,39-39V83.8
			C191.2,62.3,173.8,44.9,152.3,44.9z M122.4,50.1h29.9c17.8,0,32.4,13.8,33.6,31.3c-8.9,8.9-25.1,24.1-49.4-0.2
			c-8.5-8.5-17.6-12.7-27-12.3c-8.7,0.3-15.7,4.4-20,7.8C92.7,61.6,106.2,50.1,122.4,50.1z M152.3,175.1h-29.9
			c-18.6,0-33.7-15.1-33.7-33.7V84.5c1.6-1.7,9.8-9.9,21-10.3c7.9-0.3,15.7,3.3,23.1,10.8c9.7,9.7,19.5,14.6,29,14.6
			c2.2,0,4.3-0.3,6.5-0.8c7.4-1.8,13.4-6.3,17.8-10.2v52.8C186,160,170.9,175.1,152.3,175.1z"/>
		<g>
			<path class="st2" d="M159.5,199.8h-44.4v-24h44.4V199.8z M120.4,194.5h33.9V181h-33.9V194.5z"/>
		</g>
	</g>
</g>
</svg>
