<?xml version="1.0" encoding="utf-8"?>
<!-- Generator: Adobe Illustrator 23.1.0, SVG Export Plug-In . SVG Version: 6.00 Build 0)  -->
<svg version="1.1" id="Layer_1" xmlns="http://www.w3.org/2000/svg" xmlns:xlink="http://www.w3.org/1999/xlink" x="0px" y="0px"
	 viewBox="0 0 274.6 276.6" style="enable-background:new 0 0 274.6 276.6;" xml:space="preserve">
<style type="text/css">
	.st0{fill:none;}
	.st1{fill:#DDDDDD;}
	.st2{fill:#FFFFFF;}
</style>
<g>
	<path class="st0" d="M73.6,169.9c13.2,13.2,22,4.9,26.8,0.1c-0.7-9.5-8.6-17-18.3-17H65.9c-8.8,0-16.1,6.2-17.9,14.5
		c2.4-1.8,6.2-4.1,10.9-4.2C64,163.1,69,165.3,73.6,169.9z"/>
	<rect x="64.9" y="224.1" class="st0" width="18.4" height="7.3"/>
	<path class="st0" d="M91.4,234.8l-5.1,12.9l-2.2-2.4l-9.9-10.5H74l-8,8.5l-0.4,0.5l-1.4,1.5l-2.2,2.4l-5.1-12.9H42.9
		c-5.1,0-9.8,1.3-14,3.6l45.2,26.1l44.5-25.7c-4.5-2.5-9.6-4-15.1-4H91.4z"/>
	<polygon class="st0" points="64.5,241.9 71.2,234.8 58.9,234.8 62.6,244 62.7,243.9 62.6,243.8 	"/>
	<polygon class="st0" points="85.6,244 89.2,234.8 76.9,234.8 	"/>
	<path class="st1" d="M73.8,118.1l-65,37.5v75.1l14.1,8.1l2.7,1.5l48.3,27.9l47.6-27.5l2.7-1.5l14.8-8.5v-75.1L73.8,118.1z
		 M73.8,264.5l-45.2-26.1c4.1-2.3,8.9-3.6,14-3.6h13.9l5.1,12.9l2.2-2.4l1.4-1.5l0,0l0.4-0.4l8-8.5h0.2l9.9,10.5l2.2,2.4l5.1-12.9
		h12.1c5.5,0,10.6,1.5,15.1,4L73.8,264.5z M58.8,166.1c4.3-0.2,8.5,1.8,12.5,5.8c5.3,5.3,10.6,7.9,15.7,7.9c1.2,0,2.3-0.1,3.5-0.4
		c4-1,7.3-3.4,9.7-5.6v28.6c0,10.1-8.2,18.3-18.3,18.3H65.7c-10.1,0-18.3-8.2-18.3-18.3v-30.9C48.2,170.8,52.7,166.3,58.8,166.1z
		 M47.8,167.5c1.8-8.3,9.1-14.5,17.9-14.5h16.2c9.7,0,17.6,7.5,18.3,17c-4.8,4.8-13.6,13.1-26.8-0.1c-4.6-4.6-9.6-6.9-14.7-6.7
		C53.9,163.4,50.2,165.7,47.8,167.5z M64.6,224.1H83v7.3H64.6V224.1z M88.9,234.8l-3.7,9.2l-8.6-9.2H88.9z M70.9,234.8l-6.7,7.1
		l-1.8,1.9l-0.1,0.1l-3.7-9.2H70.9z M135.5,228.9l-14.4,8.3c-5.2-3.3-11.3-5.2-17.9-5.2H85.8v-8.6c9.8-1.9,17.2-10.5,17.2-20.8
		v-31.2c0-11.7-9.5-21.2-21.2-21.2H65.7c-11.7,0-21.2,9.5-21.2,21.2v31.2c0,10.3,7.4,18.9,17.2,20.8v8.6H42.6
		c-6.2,0-11.9,1.8-16.8,4.9L12,228.9v-71.3l61.7-35.6l61.7,35.6V228.9z"/>
	<path class="st0" d="M201,169.9c13.2,13.2,22,4.9,26.8,0.1c-0.7-9.5-8.6-17-18.3-17h-16.2c-8.8,0-16.1,6.2-17.9,14.5
		c2.4-1.8,6.2-4.1,10.9-4.2C191.4,163.1,196.3,165.3,201,169.9z"/>
	<rect x="192.2" y="224.1" class="st0" width="18.4" height="7.3"/>
	<path class="st0" d="M218.8,234.8l-5.1,12.9l-2.2-2.4l-9.9-10.5h-0.2l-8,8.5l-0.4,0.5l-1.4,1.5l-2.2,2.4l-5.1-12.9h-13.9
		c-4.8,0-9.4,1.2-13.4,3.3l44.6,25.8l44-25.4c-4.3-2.4-9.3-3.7-14.5-3.7H218.8z"/>
	<polygon class="st0" points="212.9,244 216.6,234.8 204.3,234.8 	"/>
	<path class="st1" d="M200.9,118l-65,37.5v75.1l14.6,8.4l2.7,1.6l47.8,27.6L248,241l2.7-1.6l15.2-8.8v-75.1L200.9,118z M200.9,264.4
		l-44.6-25.8c4-2.1,8.6-3.3,13.4-3.3h13.9l5.1,12.9l2.2-2.4l1.4-1.5l0,0l0.4-0.4l8-8.5h0.2l9.9,10.5l2.2,2.4l5.1-12.9h12.1
		c5.3,0,10.2,1.3,14.5,3.7L200.9,264.4z M185.8,166.6c4.3-0.2,8.5,1.8,12.5,5.8c5.3,5.3,10.6,7.9,15.7,7.9c1.2,0,2.3-0.1,3.5-0.4
		c4-1,7.3-3.4,9.7-5.6V203c0,10.1-8.2,18.3-18.3,18.3h-16.2c-10.1,0-18.3-8.2-18.3-18.3v-30.9C175.3,171.2,179.8,166.8,185.8,166.6z
		 M174.9,168c1.8-8.3,9.1-14.5,17.9-14.5H209c9.7,0,17.6,7.5,18.3,17c-4.8,4.8-13.6,13.1-26.8-0.1c-4.6-4.6-9.6-6.9-14.7-6.7
		C181,163.9,177.2,166.1,174.9,168z M191.7,224.6h18.4v7.3h-18.4V224.6z M216,235.3l-3.7,9.2l-8.6-9.2H216z M198,235.3l-6.7,7.1
		l-1.8,1.9l-0.1,0.1l-3.7-9.2H198z M262.6,228.7l-14.9,8.6c-5.1-3.1-11-4.9-17.4-4.9h-17.4v-8.6c9.8-1.9,17.2-10.5,17.2-20.8v-31.2
		c0-11.7-9.5-21.2-21.2-21.2h-16.2c-11.7,0-21.2,9.5-21.2,21.2V203c0,10.3,7.4,18.9,17.2,20.8v8.6h-19.2c-5.9,0-11.5,1.7-16.3,4.5
		l-14.3-8.2v-71.3l61.7-35.6l61.7,35.6V228.7z"/>
	<path class="st0" d="M154.5,125.3l-5.1,12.9l-2.2-2.4l-9.9-10.5H137l-8,8.5l-0.4,0.5l-1.4,1.5l-2.2,2.4l-5.1-12.9h-13.9
		c-4.9,0-9.6,1.3-13.7,3.5l44.9,25.9l44.2-25.5c-4.4-2.4-9.4-3.8-14.8-3.8H154.5z"/>
	<rect x="127.9" y="114.6" class="st0" width="18.4" height="7.3"/>
	<polygon class="st0" points="127.5,132.4 134.2,125.3 121.9,125.3 125.6,134.4 125.7,134.3 125.6,134.3 	"/>
	<polygon class="st0" points="148.6,134.4 152.3,125.3 140,125.3 	"/>
	<polygon class="st2" points="128.5,134.3 129,133.8 128.5,134.3 	"/>
	<polygon class="st2" points="125.6,134.3 125.7,134.3 127.5,132.4 	"/>
	<path class="st0" d="M125.1,122.4v-8.6c-9.8-1.9-17.2-10.5-17.2-20.8V61.8c0-11.7,9.5-21.2,21.2-21.2h16.2
		c11.7,0,21.2,9.5,21.2,21.2v31.2c0,10.3-7.4,18.9-17.2,20.8v8.6h17.4c6.5,0,12.5,1.9,17.6,5.1l14.7-8.5V47.7l-61.7-35.6L75.4,47.7
		V119l14,8.1c4.8-3,10.5-4.7,16.5-4.7H125.1z"/>
	<path class="st0" d="M136.6,60.4c13.2,13.2,22,4.9,26.8,0.1c-0.7-9.5-8.6-17-18.3-17H129c-8.8,0-16.1,6.2-17.9,14.5
		c2.4-1.8,6.2-4.1,10.9-4.2C127.1,53.5,132,55.8,136.6,60.4z"/>
	<path class="st0" d="M145.2,111.4c10.1,0,18.3-8.2,18.3-18.3V64.4c-2.4,2.1-5.7,4.6-9.7,5.6c-1.2,0.3-2.3,0.4-3.5,0.4
		c-5.2,0-10.4-2.7-15.7-7.9c-4-4-8.3-6-12.5-5.8c-6.1,0.2-10.5,4.6-11.4,5.6v30.9c0,10.1,8.2,18.3,18.3,18.3H145.2z"/>
	<path class="st2" d="M137.1,8.3l-65,37.5v75.1l14.3,8.3l2.7,1.5l48,27.7l47.4-27.3l2.7-1.5l15-8.7V45.8L137.1,8.3z M137.1,154.7
		l-44.9-25.9c4.1-2.2,8.7-3.5,13.7-3.5h13.9l5.1,12.9l2.2-2.4l1.4-1.5l0,0l0.4-0.4l8-8.5h0.2l9.9,10.5l2.2,2.4l5.1-12.9h12.1
		c5.4,0,10.4,1.4,14.8,3.8L137.1,154.7z M122.1,56.6c4.3-0.2,8.5,1.8,12.5,5.8c5.3,5.3,10.6,7.9,15.7,7.9c1.2,0,2.3-0.1,3.5-0.4
		c4-1,7.3-3.4,9.7-5.6v28.6c0,10.1-8.2,18.3-18.3,18.3H129c-10.1,0-18.3-8.2-18.3-18.3V62.2C111.6,61.2,116,56.8,122.1,56.6z
		 M111.1,58c1.8-8.3,9.1-14.5,17.9-14.5h16.2c9.7,0,17.6,7.5,18.3,17c-4.8,4.8-13.6,13.1-26.8-0.1c-4.6-4.6-9.6-6.9-14.7-6.7
		C117.3,53.9,113.5,56.1,111.1,58z M127.9,114.6h18.4v7.3h-18.4V114.6z M140,125.3h12.3l-3.7,9.2L140,125.3z M134.2,125.3l-6.7,7.1
		l-1.8,1.9l-0.1,0.1l-3.7-9.2H134.2z M198.8,119l-14.7,8.5c-5.1-3.2-11.2-5.1-17.6-5.1h-17.4v-8.6c9.8-1.9,17.2-10.5,17.2-20.8V61.8
		c0-11.7-9.5-21.2-21.2-21.2H129c-11.7,0-21.2,9.5-21.2,21.2v31.2c0,10.3,7.4,18.9,17.2,20.8v8.6h-19.2c-6.1,0-11.7,1.7-16.5,4.7
		l-14-8.1V47.7l61.7-35.6l61.7,35.6V119z"/>
</g>
</svg>
