<?xml version="1.0" encoding="utf-8"?>
<!-- Generator: Adobe Illustrator 23.1.0, SVG Export Plug-In . SVG Version: 6.00 Build 0)  -->
<svg version="1.1" id="Layer_1" xmlns="http://www.w3.org/2000/svg" xmlns:xlink="http://www.w3.org/1999/xlink" x="0px" y="0px"
	 viewBox="0 0 274.6 276.6" style="enable-background:new 0 0 274.6 276.6;" xml:space="preserve">
<style type="text/css">
	.st0{fill:#CCCCCC;}
	.st1{fill:#FFFFFF;}
</style>
<g>
	<g>
		<g>
			<path class="st0" d="M162.7,151.9c-18.4,0-35.6-7.2-48.6-20.1c-13-13-20.1-30.3-20.1-48.6s7.2-35.6,20.1-48.6
				c13-13,30.3-20.1,48.6-20.1s35.6,7.2,48.6,20.1c13,13,20.1,30.3,20.1,48.6s-7.2,35.6-20.1,48.6
				C198.4,144.7,181.1,151.9,162.7,151.9z M162.7,17.4C126.5,17.4,97,46.9,97,83.1s29.5,65.7,65.7,65.7s65.7-29.5,65.7-65.7
				S199,17.4,162.7,17.4z"/>
		</g>
		<g>
			<path class="st0" d="M162.7,151.9c-7,0-13.5-7.4-18.2-20.7c-4.5-12.9-7.1-29.9-7.1-48.1s2.5-35.2,7.1-48.1
				c4.7-13.4,11.2-20.7,18.2-20.7S176.3,21.7,181,35c4.5,12.9,7.1,29.9,7.1,48.1s-2.5,35.2-7.1,48.1
				C176.3,144.5,169.8,151.9,162.7,151.9z M162.7,17.4c-5.6,0-11.2,6.8-15.4,18.7c-4.4,12.5-6.9,29.3-6.9,47s2.4,34.5,6.9,47
				c4.2,11.9,9.8,18.7,15.4,18.7c5.6,0,11.2-6.8,15.4-18.7c4.4-12.5,6.9-29.3,6.9-47s-2.4-34.5-6.9-47
				C173.9,24.2,168.3,17.4,162.7,17.4z"/>
		</g>
		<g>
			<path class="st0" d="M162.7,151.9c-13.6,0-26.4-7.2-36-20.3c-9.5-13-14.7-30.2-14.7-48.4c0-18.3,5.2-35.5,14.7-48.4
				c9.6-13.1,22.4-20.3,36-20.3s26.4,7.2,36,20.3c9.5,13,14.7,30.2,14.7,48.4c0,18.3-5.2,35.5-14.7,48.4
				C189.2,144.7,176.4,151.9,162.7,151.9z M162.7,17.4c-26.3,0-47.7,29.5-47.7,65.7s21.4,65.7,47.7,65.7s47.7-29.5,47.7-65.7
				S189,17.4,162.7,17.4z"/>
		</g>
		<g>
			<rect x="95.5" y="81.6" class="st0" width="134.5" height="3"/>
		</g>
		<g>
			<path class="st0" d="M161.7,57.8c-7,0-13.9-0.7-20.9-2c-13-2.2-24.6-6.4-33.6-12.3l1.6-2.6c8.7,5.6,19.9,9.7,32.5,11.8l0,0
				c14,2.7,28.3,2.6,42.4-0.4c12.3-2.3,23.1-6.5,31.4-12.1l1.7,2.5c-8.6,5.8-19.9,10.2-32.5,12.5C176.9,57,169.3,57.8,161.7,57.8z"
				/>
		</g>
		<g>
			<path class="st0" d="M215.3,125.8c-8.3-5.6-19.2-9.8-31.4-12.1c-14.1-3-28.4-3.1-42.5-0.4l0,0c-12.6,2.1-23.8,6.2-32.5,11.8
				l-1.6-2.6c9-5.8,20.6-10.1,33.6-12.3c14.4-2.8,29.1-2.7,43.6,0.4c12.6,2.4,23.9,6.7,32.5,12.5L215.3,125.8z"/>
		</g>
	</g>
	<g>
		<path class="st1" d="M46.6,248.3H20.2v-99.6h26.4c4.5,0,8.1,3.6,8.1,8.1v83.3C54.8,244.6,51.1,248.3,46.6,248.3z M23.2,245.2h23.4
			c2.8,0,5.1-2.3,5.1-5.1v-83.3c0-2.8-2.3-5.1-5.1-5.1H23.2V245.2z"/>
	</g>
	<g>
		<path class="st1" d="M139.7,230.7c-2,0-4.1-0.6-6.3-1.7c-5.3-2.7-11.4-8.4-20.7-17c-3-2.8-6.3-5.9-10.1-9.3l2.9-3.2
			c3.7,3.4,7.1,6.5,10.1,9.3c18.7,17.4,23.4,21.3,30.5,14.1c2.4-2.4,3.6-5.1,3.6-7.9c-0.1-5.9-5.2-10.9-5.2-10.9l0,0l-30.3-30.3
			l-0.1-0.1c-7.6-9.4-15.5-8.1-15.8-8.1l-0.2,0l-0.2,0H53.3v-4.3h44.5c1.7-0.2,11.1-1.1,19.7,9.5l30.2,30.2c0.5,0.5,6.5,6.4,6.5,14
			c0,4.1-1.6,7.8-4.8,11C146.1,229.1,143.1,230.7,139.7,230.7z"/>
	</g>
	<g>
		<path class="st1" d="M129.2,262.3c-4.3,0-9-0.9-13.6-3.5L75.6,238c-0.1,0-12.1-5.9-20.5-1.1l-2.1-3.8c10.5-6,24,0.7,24.6,1
			l40.1,20.8c12,6.8,25.5-0.5,25.7-0.5c0.7-0.4,78.7-45.5,90.8-52.9c1-0.6,1.9-1.2,2.8-1.7c11.2-6.8,14.9-9.5,12.4-15.6
			c-2.9-7-10.9-6-11.4-6l-100.4,17.5l-0.7-4.3L237.2,174c4.1-0.6,12.7,0.4,16.1,8.6c4,9.8-3.6,14.5-14.1,20.9
			c-0.9,0.6-1.9,1.1-2.8,1.7c-12.1,7.5-90.1,52.5-90.9,53C145,258.5,138,262.3,129.2,262.3z"/>
	</g>
</g>
</svg>
