<?xml version="1.0" encoding="utf-8"?>
<!-- Generator: Adobe Illustrator 23.1.0, SVG Export Plug-In . SVG Version: 6.00 Build 0)  -->
<svg version="1.1" id="Layer_1" xmlns="http://www.w3.org/2000/svg" xmlns:xlink="http://www.w3.org/1999/xlink" x="0px" y="0px"
	 viewBox="0 0 404.6 226" style="enable-background:new 0 0 404.6 226;" xml:space="preserve">
<style type="text/css">
	.st0{fill:#034EA2;}
	.st1{fill:#FFFFFF;}
</style>
<g>
	<polyline class="st0" points="184.5,144.1 184.5,184.2 194.3,184.2 194.3,168.1 202.7,168.1 202.7,159.9 194.3,159.9 194.3,144.1 	
		"/>
	<path class="st0" d="M148,187.5h46.4v32.8H148V187.5z M184.9,195.5h-27.4v16.8h27.4V195.5z"/>
	<polyline class="st0" points="262.1,144.1 262.1,184.2 252.4,184.2 252.4,168.1 239.8,168.1 239.8,159.9 252.2,159.9 252.2,144.1 	
		"/>
	<path class="st0" d="M237.8,222.5c-14.2,0-25.7-8.3-25.7-18.6c0-10.3,11.5-18.6,25.7-18.6c14.2,0,25.7,8.3,25.7,18.6
		C263.5,214.1,252,222.5,237.8,222.5 M253.8,203.9c0-5.7-7.2-10.4-16-10.4c-8.8,0-16,4.7-16,10.4c0,5.7,7.1,10.4,16,10.4
		C246.6,214.3,253.8,209.6,253.8,203.9"/>
	<path class="st0" d="M161.2,145.6c0,0-1.3,21.7,16.3,30.7l-5.1,7c0,0-12.9-8.5-15.8-17.8c-2.9,9.3-15.8,17.8-15.8,17.8l-5.1-7
		c17.6-9,16.3-30.7,16.3-30.7H161.2z"/>
	<path class="st0" d="M223.1,165.4c-2.9,9.3-14.7,17.1-14.7,17.1l-5.1-7c16.5-8.3,15.2-30,15.2-30h9.1c0,0-1.3,21.7,15.2,30l-5.1,7
		C237.9,182.5,226.1,174.7,223.1,165.4"/>
	<path class="st0" d="M391,159.9v-15.8h-9.9v49.5h9.9v-25.5h8.4v-8.2H391z M369.1,183.3l5.1-7c-17.6-9-16.3-30.7-16.3-30.7h-9.1
		c0,0,1.3,21.7-16.3,30.7l5.1,7c0,0,12.9-8.5,15.8-17.8C356.2,174.7,369.1,183.3,369.1,183.3 M355.6,187.5h-9.5v32.9H391v-8.2h-35.4
		V187.5z"/>
	<path class="st0" d="M277.3,220.4h47.1v-7.5h-37.8v-5h37.8v-19.2h-19.2v-4.3h24.2v-7.6h-57.2v7.6h24.1v4.3h-19v7.4h37.8v4.3h-37.8
		V220.4z M277.3,172.5h47.1v-26.9h-47.1V172.5z M315.1,165h-28.4v-12h28.4V165z"/>
</g>
<g>
	<g>
		<path class="st0" d="M368.8,41.4c4.9,28.1-71.5,64.9-170.8,82.1C98.8,140.8,14.4,132.1,9.5,104C4.6,75.9,81.1,39.1,180.3,21.8
			C279.5,4.5,363.9,13.3,368.8,41.4z"/>
	</g>
	<g>
		<g>
			<polygon class="st1" points="270.3,82.5 269.8,55 278.5,55 278.5,89.6 266.1,89.6 257.4,61.2 257.2,61.2 257.7,89.6 249.1,89.6 
				249.1,55 262.1,55 270.1,82.5 			"/>
			<polygon class="st1" points="112.9,58.2 108.1,90 98.7,90 105.1,55 120.7,55 127.2,90 117.7,90 113.1,58.2 			"/>
			<polygon class="st1" points="153.7,81.7 158,55 172.3,55 173,90 164.3,90 164.1,58.5 163.9,58.5 158,90 149.2,90 143.3,58.5 
				143.1,58.5 142.9,90 134.1,90 134.9,55 149.2,55 153.5,81.7 			"/>
			<path class="st1" d="M83.9,80.1c0.3,0.8,0.2,1.9,0.1,2.6c-0.3,1.2-1.1,2.4-3.4,2.4c-2.2,0-3.5-1.3-3.5-3.2v-3.4h-9.4v2.7
				c0,7.8,6.1,10.2,12.7,10.2c6.3,0,11.5-2.2,12.4-8c0.4-3,0.1-5,0-5.8C91.2,70.3,78,68.1,77,64c-0.2-0.7-0.1-1.4-0.1-1.8
				c0.3-1.1,1-2.4,3.2-2.4c2,0,3.3,1.3,3.3,3.2c0,0.6,0,2.2,0,2.2h8.7v-2.5c0-7.6-6.8-8.8-11.8-8.8c-6.2,0-11.3,2-12.2,7.7
				c-0.3,1.6-0.3,3,0.1,4.7C69.7,73.5,82.1,75.6,83.9,80.1z"/>
			<path class="st1" d="M197.7,80.1c0.4,0.8,0.2,1.9,0.1,2.6c-0.3,1.1-1.1,2.3-3.4,2.3c-2.2,0-3.5-1.2-3.5-3.1l0-3.3h-9.3l0,2.7
				c0,7.7,6.1,10.1,12.6,10.1c6.3,0,11.4-2.1,12.2-7.9c0.4-3,0.1-4.9,0-5.7c-1.5-7.3-14.6-9.4-15.6-13.5c-0.2-0.7-0.1-1.4,0-1.8
				c0.2-1.1,1-2.3,3.2-2.3c2,0,3.2,1.2,3.2,3.1c0,0.6,0,2.1,0,2.1h8.7v-2.4c0-7.5-6.8-8.7-11.7-8.7c-6.1,0-11.2,2-12.1,7.7
				c-0.2,1.6-0.3,2.9,0.1,4.7C183.6,73.5,195.9,75.6,197.7,80.1z"/>
			<path class="st1" d="M227.1,84.7c2.4,0,3.2-1.7,3.4-2.5c0.1-0.4,0.1-0.9,0.1-1.4V55h8.8v25.1c0,0.6,0,2-0.1,2.3
				c-0.6,6.5-5.8,8.6-12.2,8.6c-6.4,0-11.6-2.1-12.2-8.6c0-0.3-0.1-1.7-0.1-2.3V55h8.9v25.9c0,0.5,0,1,0.1,1.4
				C223.9,83.1,224.6,84.7,227.1,84.7z"/>
			<path class="st1" d="M300,84.4c2.5,0,3.4-1.6,3.6-2.5c0.1-0.4,0.1-0.9,0.1-1.3v-5.1h-3.6v-5.1h12.4v9.4c0,0.7,0,1.1-0.1,2.3
				c-0.6,6.4-6.1,8.6-12.3,8.6c-6.2,0-11.7-2.3-12.3-8.6c-0.1-1.2-0.1-1.6-0.1-2.3l0-14.7c0-0.6,0.1-1.7,0.1-2.3
				c0.8-6.5,6.1-8.7,12.3-8.7c6.2,0,11.6,2.1,12.3,8.7c0.1,1.1,0.1,2.3,0.1,2.3v1.2h-8.8v-2c0,0,0-0.8-0.1-1.3
				c-0.1-0.8-0.8-2.5-3.5-2.5c-2.6,0-3.3,1.7-3.5,2.5c-0.1,0.5-0.2,1.1-0.2,1.6v16c0,0.4,0,0.9,0.1,1.3
				C296.6,82.8,297.5,84.4,300,84.4z"/>
		</g>
	</g>
</g>
</svg>
