<?xml version="1.0" encoding="utf-8"?>
<!-- Generator: Adobe Illustrator 23.1.0, SVG Export Plug-In . SVG Version: 6.00 Build 0)  -->
<svg version="1.1" id="Layer_1" xmlns="http://www.w3.org/2000/svg" xmlns:xlink="http://www.w3.org/1999/xlink" x="0px" y="0px"
	 viewBox="0 0 274.6 276.6" style="enable-background:new 0 0 274.6 276.6;" xml:space="preserve">
<style type="text/css">
	.st0{fill:#AECCEB;}
	.st1{fill:none;}
	.st2{fill:#FFFFFF;}
</style>
<g>
	<path class="st0" d="M153.4,244.8l-3-35.9h0.4l10.1-10.1l-19.2-20.4h-0.3L125.8,195l16-16l16,17.4l-8.4,8.4h-15.6l-8.9-8.9
		l-2.7,2.9l10.2,10.1h0.5l-3,35.9l-0.5,5.5l-0.5,6.4l12.7,9.3l12.7-9.3l-0.5-6.4L153.4,244.8z M141.7,261.1l-8.6-6.3l0.4-4.5
		l0.5-5.5l3-35.9h9.6l3,35.9l0.5,5.5l0.4,4.5L141.7,261.1z"/>
	<polygon class="st1" points="133.1,256.8 141.7,263.1 150.3,256.8 149.9,252.3 149.4,246.8 146.5,210.9 136.9,210.9 133.9,246.8 
		133.4,252.3 	"/>
	<polygon class="st1" points="149.4,206.8 157.8,198.4 141.8,181 125.8,197 124.9,197.9 133.8,206.8 	"/>
	<polygon class="st1" points="122.9,194.3 136,180.4 112.1,180.4 119.2,198.2 119.4,198 119.3,197.9 	"/>
	<polygon class="st1" points="163.9,198.2 171.1,180.4 147.2,180.4 	"/>
	<polygon class="st2" points="124.9,197.9 124.9,197.9 125.8,197 	"/>
	<path class="st2" d="M198.8,174.8H80.9c-33.8,0-61.4,27.5-61.4,61.4v16.1h102v-5.5H25.1v-10.6c0-30.8,25-55.8,55.8-55.8h26.9l10,25
		l4.4-4.6l-2.8-2.8l-0.2,0.2l-7.1-17.8H136l-13.1,13.9l19-19l21.4,23.2l-2.3,2.3l4.3,4.6l10-25h23.5c32.7,0,59.3,26.6,59.3,59.3v7.1
		h-96.3v5.4l0,0.2h101.9v-12.6C263.6,203.9,234.5,174.8,198.8,174.8z M163.9,198.2l-16.8-17.8h23.9L163.9,198.2z"/>
	<polygon class="st2" points="119.3,197.9 119.4,198 122.9,194.3 	"/>
	<polygon class="st2" points="141.9,175.3 122.9,194.3 119.4,198 122.2,200.8 124.9,197.9 124.9,197.9 125.8,197 141.4,180.4 
		141.7,180.4 161,200.8 163.3,198.5 	"/>
	<path class="st2" d="M157.3,15.8h-31.5c-22.7,0-41.1,18.4-41.1,41.1v60.7c0,22.7,18.4,41.1,41.1,41.1h31.5
		c22.7,0,41.1-18.4,41.1-41.1V57C198.5,34.3,180,15.8,157.3,15.8z M125.8,21.4h31.5c18.8,0,34.2,14.6,35.5,33.1
		c-9.4,9.4-26.5,25.5-52.1-0.2c-9-9-18.6-13.4-28.5-13c-9.1,0.4-16.5,4.7-21.1,8.2C94.5,33.5,108.7,21.4,125.8,21.4z M157.3,153.3
		h-31.5c-19.6,0-35.6-16-35.6-35.6v-60c1.7-1.8,10.3-10.4,22.1-10.9c8.3-0.3,16.5,3.5,24.4,11.4c10.3,10.3,20.5,15.5,30.6,15.5
		c2.3,0,4.6-0.3,6.8-0.8c7.8-1.8,14.2-6.6,18.8-10.8v55.7C192.9,137.3,177,153.3,157.3,153.3z"/>
	<g>
		<path class="st2" d="M165,179.3h-46.8V154H165V179.3z M123.7,173.7h35.8v-14.2h-35.8V173.7z"/>
	</g>
</g>
</svg>
